PathFileType	4	(X/Y/Z)	 s06c0201.trc
DataRate	CameraRate	NumFrames	NumMarkers	Units	OrigDataRate	OrigDataStartFrame	OrigNumFrames
200	200	5	49	mm	200	1251	2000
Frame#	Time	racr			lacr			c7			jug			rlel			rdr			llel			ldr			s2			lic			ric			lasi			rasi			rpsi			lpsi			rgt			lgt			rth1			rth2			rth3			rth4			rlfc			rmfc			rsh1			rsh2			rsh3			rsh4			rlmal			rmmal			rcal			rtoe			rmt5			lth1			lth2			lth4			lth3			llfc			lmfc			llmal			lcal			lmt5			lsh1			lsh2			lsh3			lsh4			ltoe			SBIKE			LBIKE			RBIKE			
		X1	Y1	Z1	X2	Y2	Z2	X3	Y3	Z3	X4	Y4	Z4	X5	Y5	Z5	X6	Y6	Z6	X7	Y7	Z7	X8	Y8	Z8	X9	Y9	Z9	X10	Y10	Z10	X11	Y11	Z11	X12	Y12	Z12	X13	Y13	Z13	X14	Y14	Z14	X15	Y15	Z15	X16	Y16	Z16	X17	Y17	Z17	X18	Y18	Z18	X19	Y19	Z19	X20	Y20	Z20	X21	Y21	Z21	X22	Y22	Z22	X23	Y23	Z23	X24	Y24	Z24	X25	Y25	Z25	X26	Y26	Z26	X27	Y27	Z27	X28	Y28	Z28	X29	Y29	Z29	X30	Y30	Z30	X31	Y31	Z31	X32	Y32	Z32	X33	Y33	Z33	X34	Y34	Z34	X35	Y35	Z35	X36	Y36	Z36	X37	Y37	Z37	X38	Y38	Z38	X39	Y39	Z39	X40	Y40	Z40	X41	Y41	Z41	X42	Y42	Z42	X43	Y43	Z43	X44	Y44	Z44	X45	Y45	Z45	X46	Y46	Z46	X47	Y47	Z47	X48	Y48	Z48	X49	Y49	Z49	
1251	6.2550	530.755921	1232.877725	-72.062095	520.960362	1212.731800	-387.948904	528.045748	1324.298676	-230.117275	503.753426	1151.599503	-221.973981	483.363886	1008.677105	77.033979	646.381884	919.816012	-51.557294	437.553147	973.983697	-491.272102	638.119565	924.086452	-410.550141	-13.698763	1132.183717	-189.479979	134.806526	1114.913013	-371.826201	135.445529	1110.559741	-36.096189	169.539340	1069.170534	-335.088946	166.827271	1074.632750	-76.089603	19.086648	1177.621128	-163.491631	12.541526	1172.027778	-224.695706	120.150174	1031.388462	-0.447068	118.867889	1036.816216	-395.447507	228.362552	970.406825	-5.265299	313.889662	941.900125	-16.112404	371.183781	877.179843	-24.529142	330.046466	972.027700	-32.169613	416.858846	793.578199	-55.499497	399.897283	779.679483	-167.585630	332.496167	706.094015	-34.189130	275.104168	644.700715	-57.906669	193.206880	611.794655	-57.700164	288.363957	634.385086	-93.877413	119.035183	579.578419	-61.648810	145.605501	554.285472	-149.996802	58.588879	608.757251	-108.633445	192.496882	366.724463	-99.988953	123.476582	440.201389	-34.244167	169.352908	917.941293	-417.642111	233.634616	859.852892	-412.409352	263.947702	879.312164	-402.590825	260.580702	774.536900	-406.502963	297.043149	660.709448	-391.660085	303.792018	640.582655	-281.048575	236.756817	293.455274	-382.332794	166.022815	273.935969	-334.484142	352.376454	209.179347	-407.767574	280.369519	553.317276	-413.369240	288.267110	468.491420	-395.036043	253.600426	388.363152	-396.926646	316.579636	468.175287	-366.895854	438.585968	204.269698	-349.287178	-203.384319	869.871570	-212.537771	-48.602954	83.772738	-419.332336	-50.191066	79.708955	-22.016525	
1252	6.2600	530.903469	1234.277351	-70.957492	522.098100	1214.905444	-386.759804	529.427998	1325.883596	-229.014144	503.112722	1152.080602	-222.872732	483.930785	1009.383502	76.454553	647.151103	920.354600	-51.965179	438.910999	976.578775	-491.269967	639.021652	924.572546	-410.581113	-13.205880	1134.058347	-191.380950	136.516085	1117.131735	-372.299716	134.389943	1113.144781	-37.022303	170.922418	1071.128972	-335.015949	165.653542	1076.453125	-76.439500	19.328418	1179.642400	-165.479279	13.560763	1173.867756	-226.807733	119.495858	1035.916001	-0.520176	119.852620	1037.308305	-396.132877	228.672152	976.458276	-5.030483	314.797157	950.125494	-15.802694	373.067706	885.483335	-25.637677	330.018715	980.230305	-32.626482	422.114554	803.343789	-55.025690	405.369167	789.458681	-167.545154	337.969808	715.204408	-34.161298	280.740316	653.737491	-57.921609	198.968256	620.358766	-57.689036	292.713467	642.526802	-94.750336	124.562739	587.684397	-61.846988	151.146004	562.602712	-150.383420	63.471613	615.938320	-108.913155	201.004228	375.961342	-100.167236	131.051613	448.592614	-34.318796	166.835719	917.101571	-418.710588	229.626820	857.332496	-414.247442	260.469334	875.976053	-404.838549	254.436898	771.320798	-408.537668	289.004631	656.709312	-393.734789	296.418366	636.720521	-282.894535	231.744259	289.034578	-383.131191	161.387802	271.571023	-335.293422	346.006091	201.102554	-407.944952	273.033344	549.178434	-415.191604	281.500538	464.391458	-396.908449	247.224268	384.082642	-398.457789	310.060232	464.207897	-369.042933	431.865437	193.912897	-349.205541	-203.400716	870.001123	-212.744439	-48.619798	83.857821	-419.380859	-50.236516	80.076568	-21.777839	
1253	6.2650	530.995388	1235.719200	-69.983613	523.499038	1217.008887	-386.002599	530.780448	1327.422130	-227.868304	504.282123	1153.601346	-221.364679	484.590281	1009.917598	75.871934	647.873280	921.007190	-52.233697	440.411004	979.128663	-491.129244	640.003374	925.035200	-410.662411	-13.442394	1135.663647	-192.889581	138.130350	1119.378291	-372.991911	133.396707	1115.677882	-37.963893	172.234514	1072.951038	-335.154744	164.650069	1078.293381	-76.763544	20.048277	1181.630626	-167.542127	14.567762	1175.861027	-228.823165	118.843168	1040.473336	-0.879952	120.749471	1038.066685	-396.852904	228.719758	982.464435	-5.655778	315.438849	958.087628	-16.299576	374.872797	896.914185	-21.679410	329.643494	988.715115	-33.940861	426.949161	813.470138	-54.821057	410.279313	799.483570	-167.448961	343.226795	724.201421	-33.950327	286.350743	662.481470	-57.738637	205.136513	628.366812	-57.744589	298.513320	651.311304	-94.590790	130.216820	595.356496	-61.969016	157.459749	570.857616	-150.264628	67.595221	622.258723	-109.946262	210.447095	385.105230	-100.059359	139.216132	456.403492	-34.321589	164.078165	916.581137	-419.574719	225.336081	855.196676	-415.998458	256.732513	872.923590	-406.936270	247.760232	768.440213	-410.376787	280.929827	653.272396	-396.246992	288.859923	633.453076	-284.563073	226.567218	284.828337	-383.397101	156.589329	269.732189	-335.978666	339.159002	193.475442	-408.178926	265.534173	545.434134	-416.852761	274.667167	460.930555	-399.051704	240.585288	380.209292	-399.815617	303.481313	460.969202	-371.800676	424.679310	183.839253	-349.114376	-203.403600	870.072880	-212.821451	-48.639826	83.912364	-419.418136	-50.206073	80.184803	-21.776233	
1254	6.2700	531.124220	1236.987769	-69.018218	524.828691	1218.874038	-384.631119	531.972777	1328.783658	-226.683978	505.607548	1155.138529	-220.604409	485.113622	1010.781584	75.474913	648.530787	921.710378	-52.586498	442.030848	981.636218	-490.920963	641.070254	925.668076	-410.722437	-12.256650	1137.761783	-194.833131	140.827044	1122.153027	-373.446310	133.112061	1118.691065	-38.121507	173.364321	1074.737529	-335.582110	164.881605	1081.363811	-76.586431	19.627446	1183.793072	-169.180262	15.945135	1177.398431	-230.137073	118.692060	1045.005602	-2.039178	121.587494	1038.901455	-397.451256	228.759859	988.938203	-6.357604	315.999109	966.497175	-16.846954	377.644628	906.790204	-21.722160	329.407785	997.104547	-35.285101	431.657048	823.414889	-54.388121	415.252649	808.731285	-167.311984	348.365094	733.274486	-33.630088	291.944493	671.092857	-57.471697	210.918105	636.464996	-57.522553	304.307166	659.794764	-94.243161	136.008687	602.484450	-61.968097	163.673572	578.508422	-150.217859	73.657171	628.566076	-109.251531	221.242183	394.854999	-99.514136	147.109591	463.717713	-34.703147	161.174826	916.329379	-420.442805	220.934990	853.207724	-417.552089	252.761410	870.312841	-409.140792	241.180880	766.025682	-412.142362	272.795232	650.067432	-398.100781	281.253630	630.491881	-285.954056	221.189676	281.491534	-384.105420	151.552996	268.499389	-336.678678	332.026736	186.720955	-408.872592	257.818099	542.132920	-418.530637	267.539290	457.676645	-400.794692	234.035254	376.777513	-400.821156	296.706866	457.932113	-373.909117	416.999950	174.204554	-348.849769	-203.418347	870.165273	-212.930446	-48.626504	83.936161	-419.409497	-50.205058	80.236197	-21.791557	
1255	6.2750	531.254512	1238.415718	-68.091683	526.191529	1220.611480	-383.155005	532.926074	1329.964786	-225.351516	506.543279	1156.791748	-218.978594	485.551564	1011.502639	75.080006	649.019464	922.440041	-52.848902	443.613804	984.174636	-490.755906	642.167021	926.315114	-410.798208	-11.273901	1139.765859	-196.580676	142.461223	1124.229136	-373.839076	132.246450	1121.098161	-39.161129	174.306669	1076.506479	-335.911790	163.850645	1083.096045	-77.129467	20.490047	1186.090577	-170.890571	16.996577	1179.438394	-231.904293	118.591410	1049.985386	-2.677472	122.267831	1040.028267	-398.350492	228.751834	995.627310	-7.263756	316.471716	974.977442	-17.517886	378.921508	916.430410	-21.298876	329.313031	1005.435710	-36.597089	435.913001	833.071693	-53.926428	420.015254	817.827148	-166.977703	353.417103	742.040329	-33.421721	297.503503	679.845085	-56.715812	216.765207	644.307785	-57.184883	310.236588	667.999199	-93.543443	141.849171	608.998032	-61.874676	169.921225	585.633059	-150.135116	78.850218	633.781114	-109.304044	230.818632	402.884092	-99.840266	155.723339	470.230553	-34.923706	158.223729	916.244367	-421.432768	216.391793	851.604989	-419.172872	248.705002	867.927599	-411.296310	234.590381	764.190514	-414.286731	264.729818	647.180760	-399.821886	273.734288	627.975990	-287.184243	215.629079	278.704395	-384.795688	146.352362	267.787459	-337.542442	324.573927	180.037806	-408.953182	249.897124	539.080292	-419.704109	260.340975	454.884112	-402.396041	227.270676	373.806338	-401.811882	289.731236	455.302063	-375.826635	408.845743	165.162804	-348.671491	-203.437341	870.175438	-212.986895	-48.587067	83.727012	-419.134832	-50.181180	80.289811	-21.794627	
